<svg xmlns="http://www.w3.org/2000/svg" width="1000" height="400" viewBox="0 0 1000 400" role="img" aria-labelledby="title desc">
<title id="title">Augmented Mastery · Auctor · Involut</title><desc id="desc">A philosophy for the purpose, a method for the practice, a product for working with AI. Three transparent technical layers revealing a shared structure.</desc>
<defs><linearGradient id="glass" x2="1" y2="1"><stop stop-color="#ffffff" stop-opacity=".1"/><stop offset="1" stop-color="#ffffff" stop-opacity=".015"/></linearGradient><radialGradient id="light"><stop stop-color="#b5a7ed" stop-opacity=".13"/><stop offset="1" stop-color="#101318" stop-opacity="0"/></radialGradient></defs>
<rect width="1000" height="400" rx="20" fill="#101318"/><ellipse cx="760" cy="200" rx="250" ry="180" fill="url(#light)"/>
<g transform="translate(660 70)"><g transform="translate(0 0) skewY(-8)"><rect width="155" height="206" rx="12" fill="url(#glass)" stroke="#8bbccc" stroke-opacity=".65"/><path d="M20 40 H75 M20 80 H135 M20 120 H135 M20 160 H135" stroke="#8bbccc" stroke-opacity=".2"/><path d="M35 155 L76 109 L38 72 M76 109 L119 64 M76 109 L124 155" stroke="#8bbccc" fill="none" stroke-width="1.5"/><circle cx="35" cy="155" r="3" fill="#8bbccc"/><circle cx="76" cy="109" r="3" fill="#8bbccc"/><circle cx="38" cy="72" r="3" fill="#8bbccc"/><circle cx="119" cy="64" r="3" fill="#8bbccc"/><circle cx="124" cy="155" r="3" fill="#8bbccc"/></g><g transform="translate(48 38) skewY(-8)"><rect width="155" height="206" rx="12" fill="url(#glass)" stroke="#b5a7ed" stroke-opacity=".65"/><path d="M20 40 H75 M20 80 H135 M20 120 H135 M20 160 H135" stroke="#b5a7ed" stroke-opacity=".2"/><path d="M35 155 L76 109 L38 72 M76 109 L119 64 M76 109 L124 155" stroke="#b5a7ed" fill="none" stroke-width="1.5"/><circle cx="35" cy="155" r="3" fill="#b5a7ed"/><circle cx="76" cy="109" r="3" fill="#b5a7ed"/><circle cx="38" cy="72" r="3" fill="#b5a7ed"/><circle cx="119" cy="64" r="3" fill="#b5a7ed"/><circle cx="124" cy="155" r="3" fill="#b5a7ed"/></g><g transform="translate(96 76) skewY(-8)"><rect width="155" height="206" rx="12" fill="url(#glass)" stroke="#80cfba" stroke-opacity=".65"/><path d="M20 40 H75 M20 80 H135 M20 120 H135 M20 160 H135" stroke="#80cfba" stroke-opacity=".2"/><path d="M35 155 L76 109 L38 72 M76 109 L119 64 M76 109 L124 155" stroke="#80cfba" fill="none" stroke-width="1.5"/><circle cx="35" cy="155" r="3" fill="#80cfba"/><circle cx="76" cy="109" r="3" fill="#80cfba"/><circle cx="38" cy="72" r="3" fill="#80cfba"/><circle cx="119" cy="64" r="3" fill="#80cfba"/><circle cx="124" cy="155" r="3" fill="#80cfba"/></g></g>
<g font-family="Arial,Helvetica,sans-serif"><text x="48" y="52" fill="#aab1be" font-size="12" letter-spacing="2.5">UNDERSTAND WHAT YOU BUILD. GROW THROUGH THE WORK.</text>
<path d="M49 89 V326" stroke="#ffffff" opacity=".16"/>
<circle cx="49" cy="112" r="5" fill="#e3b774"/><text x="76" y="116" font-size="11" letter-spacing="2" fill="#e3b774">PHILOSOPHY</text><text x="76" y="153" font-size="30" fill="#eeeee8">Augmented Mastery</text>
<circle cx="49" cy="208" r="5" fill="#b5a7ed"/><text x="76" y="212" font-size="11" letter-spacing="2" fill="#b5a7ed">METHOD</text><text x="76" y="249" font-size="30" fill="#eeeee8">Auctor</text>
<circle cx="49" cy="302" r="5" fill="#80cfba"/><text x="76" y="306" font-size="11" letter-spacing="2" fill="#80cfba">PRODUCT</text><text x="76" y="343" font-size="30" fill="#eeeee8">Involut</text>
<text x="772" y="382" text-anchor="middle" font-size="11" letter-spacing="3" fill="#aab1be">PINGUINISTA</text></g></svg>